<?xml version="1.0" encoding="UTF-8"?>
<svg width="32px" height="32px" viewBox="0 0 32 32" version="1.1" xmlns="http://www.w3.org/2000/svg" xmlns:xlink="http://www.w3.org/1999/xlink">
    <!-- Generator: Sketch 51.3 (57544) - http://www.bohemiancoding.com/sketch -->
    <title>Group</title>
    <desc>Created with Sketch.</desc>
    <defs></defs>
    <g id="Page-1" stroke="none" stroke-width="1" fill="none" fill-rule="evenodd">
        <g id="Group">
            <rect id="Rectangle" fill="#B80C15" x="0" y="0" width="32" height="32"></rect>
            <g id="ampersand" transform="translate(7.040000, 7.680000)" fill="#FFFFFF" fill-rule="nonzero">
                <path d="M8.97991111,17.8801778 C8.46222222,17.8801778 7.94453333,17.8403556 7.40693333,17.7408 C5.05742222,17.3226667 3.02648889,16.0284444 1.65262222,14.0771556 C0.298666667,12.1258667 -0.219022222,9.75644444 0.1792,7.40693333 C1.03537778,2.56853333 5.67466667,-0.657066667 10.5130667,0.1792 C12.8625778,0.597333333 14.8935111,1.89155556 16.2673778,3.84284444 C17.6412444,5.79413333 18.1589333,8.16355556 17.7408,10.4931556 C17.3226667,12.8227556 16.0284444,14.8736 14.0771556,16.2474667 C12.544,17.3226667 10.7918222,17.8801778 8.97991111,17.8801778 Z M8.96,0.856177778 C5.09724444,0.856177778 1.67253333,3.62382222 0.975644444,7.56622222 C0.597333333,9.6768 1.0752,11.8471111 2.30968889,13.6192 C3.54417778,15.3912889 5.41582222,16.5859556 7.54631111,16.9642667 C11.9466667,17.7208889 16.1678222,14.7740444 16.9443556,10.3736889 C17.3226667,8.2432 16.8448,6.0928 15.6103111,4.32071111 C14.3758222,2.54862222 12.5041778,1.35395556 10.3736889,0.975644444 C9.89582222,0.896 9.41795556,0.856177778 8.96,0.856177778 Z" id="Shape"></path>
                <path d="M11.5285333,13.2010667 L10.3537778,11.8272 C10.3139556,11.8670222 10.2940444,11.9068444 10.2542222,11.9466667 C10.2144,11.9864889 10.1944889,12.0263111 10.1745778,12.0661333 C9.83608889,12.5240889 9.47768889,12.8426667 9.11928889,13.0417778 C8.76088889,13.2408889 8.34275556,13.3205333 7.90471111,13.3205333 C7.54631111,13.3205333 7.22773333,13.2408889 6.92906667,13.1015111 C6.6304,12.9422222 6.37155556,12.7630222 6.15253333,12.5240889 C5.93351111,12.2851556 5.77422222,12.0263111 5.65475556,11.7475556 C5.53528889,11.4688 5.47555556,11.1900444 5.47555556,10.9312 C5.47555556,10.4135111 5.63484444,9.99537778 5.93351111,9.63697778 C6.19235556,9.3184 6.71004444,8.94008889 7.46666667,8.48213333 L7.24764444,8.22328889 C7.08835556,8.04408889 6.94897778,7.8848 6.82951111,7.72551111 C6.71004444,7.58613333 6.61048889,7.44675556 6.53084444,7.28746667 C6.4512,7.14808889 6.39146667,6.9888 6.35164444,6.82951111 C6.31182222,6.67022222 6.29191111,6.47111111 6.29191111,6.23217778 C6.29191111,5.69457778 6.4512,5.29635556 6.76977778,5.03751111 C7.08835556,4.77866667 7.54631111,4.63928889 8.14364444,4.63928889 C8.68124444,4.63928889 9.11928889,4.75875556 9.45777778,5.0176 C9.79626667,5.27644444 9.95555556,5.67466667 9.95555556,6.23217778 C9.95555556,6.88924444 9.81617778,7.3472 9.55733333,7.62595556 C9.43786667,7.74542222 9.29848889,7.8848 9.09937778,8.04408889 C8.90026667,8.20337778 8.66133333,8.36266667 8.38257778,8.54186667 L10.3537778,10.8316444 C10.4334222,10.7121778 10.4931556,10.6126222 10.5528889,10.5130667 C10.6126222,10.4135111 10.6723556,10.3139556 10.7121778,10.2144 C10.8117333,10.0152889 10.9112889,9.81617778 11.0108444,9.63697778 C11.1104,9.45777778 11.1900444,9.25866667 11.2696889,9.01973333 L10.6126222,9.01973333 L10.6126222,8.56177778 L12.6236444,8.56177778 L12.6236444,9.05955556 L11.8471111,9.05955556 C11.7475556,9.3184 11.648,9.57724444 11.5285333,9.81617778 C11.4090667,10.0750222 11.2896,10.3338667 11.1701333,10.5728 C11.1104,10.6922667 11.0506667,10.8117333 10.9710222,10.9312 C10.9112889,11.0506667 10.8316444,11.1701333 10.752,11.2896 L12.0263111,12.7431111 L12.8824889,12.7431111 L12.8824889,13.2209778 L11.5285333,13.2010667 Z M7.80515556,8.88035556 C7.50648889,9.07946667 7.24764444,9.27857778 7.02862222,9.43786667 C6.8096,9.59715556 6.65031111,9.73653333 6.55075556,9.87591111 C6.31182222,10.1546667 6.19235556,10.4931556 6.19235556,10.8913778 C6.19235556,11.1104 6.25208889,11.3294222 6.35164444,11.5484444 C6.4512,11.7674667 6.59057778,11.9665778 6.74986667,12.1457778 C6.90915556,12.3249778 7.08835556,12.4643556 7.28746667,12.5639111 C7.48657778,12.6634667 7.68568889,12.7232 7.86488889,12.7232 C8.28302222,12.7232 8.64142222,12.6236444 8.96,12.4245333 C9.27857778,12.2254222 9.57724444,11.9267556 9.856,11.5086222 C9.87591111,11.4688 9.91573333,11.4289778 9.93564444,11.3891556 L7.80515556,8.88035556 Z M8.97991111,5.41582222 C8.7808,5.25653333 8.48213333,5.15697778 8.12373333,5.15697778 C7.78524444,5.15697778 7.50648889,5.23662222 7.28746667,5.39591111 C7.06844444,5.5552 6.96888889,5.83395556 6.96888889,6.21226667 C6.96888889,6.37155556 6.9888,6.51093333 7.00871111,6.6304 C7.02862222,6.74986667 7.08835556,6.86933333 7.14808889,6.9888 C7.20782222,7.10826667 7.28746667,7.22773333 7.38702222,7.32728889 C7.48657778,7.44675556 7.58613333,7.56622222 7.7056,7.7056 L8.00426667,8.04408889 C8.46222222,7.74542222 8.7808,7.48657778 8.96,7.28746667 C9.17902222,7.04853333 9.29848889,6.67022222 9.29848889,6.17244444 C9.27857778,5.85386667 9.17902222,5.57511111 8.97991111,5.41582222 Z" id="Shape" stroke="#FFFFFF" stroke-width="2"></path>
            </g>
        </g>
    </g>
</svg>