<?xml version="1.0" encoding="UTF-8"?>
<svg width="100px" height="100px" viewBox="0 0 100 100" version="1.1" xmlns="http://www.w3.org/2000/svg" xmlns:xlink="http://www.w3.org/1999/xlink">
    <!-- Generator: Sketch 51.3 (57544) - http://www.bohemiancoding.com/sketch -->
    <title>Group</title>
    <desc>Created with Sketch.</desc>
    <defs></defs>
    <g id="Page-1" stroke="none" stroke-width="1" fill="none" fill-rule="evenodd">
        <g id="Group">
            <rect id="Rectangle" fill="#B80C15" x="0" y="0" width="100" height="100"></rect>
            <g id="ampersand" transform="translate(22.000000, 24.000000)" fill="#FFFFFF" fill-rule="nonzero">
                <path d="M28.0622222,55.8755556 C26.4444444,55.8755556 24.8266667,55.7511111 23.1466667,55.44 C15.8044444,54.1333333 9.45777778,50.0888889 5.16444444,43.9911111 C0.933333333,37.8933333 -0.684444444,30.4888889 0.56,23.1466667 C3.23555556,8.02666667 17.7333333,-2.05333333 32.8533333,0.56 C40.1955556,1.86666667 46.5422222,5.91111111 50.8355556,12.0088889 C55.1288889,18.1066667 56.7466667,25.5111111 55.44,32.7911111 C54.1333333,40.0711111 50.0888889,46.48 43.9911111,50.7733333 C39.2,54.1333333 33.7244444,55.8755556 28.0622222,55.8755556 Z M28,2.67555556 C15.9288889,2.67555556 5.22666667,11.3244444 3.04888889,23.6444444 C1.86666667,30.24 3.36,37.0222222 7.21777778,42.56 C11.0755556,48.0977778 16.9244444,51.8311111 23.5822222,53.0133333 C37.3333333,55.3777778 50.5244444,46.1688889 52.9511111,32.4177778 C54.1333333,25.76 52.64,19.04 48.7822222,13.5022222 C44.9244444,7.96444444 39.0755556,4.23111111 32.4177778,3.04888889 C30.9244444,2.8 29.4311111,2.67555556 28,2.67555556 Z" id="Shape"></path>
                <path d="M36.0266667,41.2533333 L32.3555556,36.96 C32.2311111,37.0844444 32.1688889,37.2088889 32.0444444,37.3333333 C31.92,37.4577778 31.8577778,37.5822222 31.7955556,37.7066667 C30.7377778,39.1377778 29.6177778,40.1333333 28.4977778,40.7555556 C27.3777778,41.3777778 26.0711111,41.6266667 24.7022222,41.6266667 C23.5822222,41.6266667 22.5866667,41.3777778 21.6533333,40.9422222 C20.72,40.4444444 19.9111111,39.8844444 19.2266667,39.1377778 C18.5422222,38.3911111 18.0444444,37.5822222 17.6711111,36.7111111 C17.2977778,35.84 17.1111111,34.9688889 17.1111111,34.16 C17.1111111,32.5422222 17.6088889,31.2355556 18.5422222,30.1155556 C19.3511111,29.12 20.9688889,27.9377778 23.3333333,26.5066667 L22.6488889,25.6977778 C22.1511111,25.1377778 21.7155556,24.64 21.3422222,24.1422222 C20.9688889,23.7066667 20.6577778,23.2711111 20.4088889,22.7733333 C20.16,22.3377778 19.9733333,21.84 19.8488889,21.3422222 C19.7244444,20.8444444 19.6622222,20.2222222 19.6622222,19.4755556 C19.6622222,17.7955556 20.16,16.5511111 21.1555556,15.7422222 C22.1511111,14.9333333 23.5822222,14.4977778 25.4488889,14.4977778 C27.1288889,14.4977778 28.4977778,14.8711111 29.5555556,15.68 C30.6133333,16.4888889 31.1111111,17.7333333 31.1111111,19.4755556 C31.1111111,21.5288889 30.6755556,22.96 29.8666667,23.8311111 C29.4933333,24.2044444 29.0577778,24.64 28.4355556,25.1377778 C27.8133333,25.6355556 27.0666667,26.1333333 26.1955556,26.6933333 L32.3555556,33.8488889 C32.6044444,33.4755556 32.7911111,33.1644444 32.9777778,32.8533333 C33.1644444,32.5422222 33.3511111,32.2311111 33.4755556,31.92 C33.7866667,31.2977778 34.0977778,30.6755556 34.4088889,30.1155556 C34.72,29.5555556 34.9688889,28.9333333 35.2177778,28.1866667 L33.1644444,28.1866667 L33.1644444,26.7555556 L39.4488889,26.7555556 L39.4488889,28.3111111 L37.0222222,28.3111111 C36.7111111,29.12 36.4,29.9288889 36.0266667,30.6755556 C35.6533333,31.4844444 35.28,32.2933333 34.9066667,33.04 C34.72,33.4133333 34.5333333,33.7866667 34.2844444,34.16 C34.0977778,34.5333333 33.8488889,34.9066667 33.6,35.28 L37.5822222,39.8222222 L40.2577778,39.8222222 L40.2577778,41.3155556 L36.0266667,41.2533333 Z M24.3911111,27.7511111 C23.4577778,28.3733333 22.6488889,28.9955556 21.9644444,29.4933333 C21.28,29.9911111 20.7822222,30.4266667 20.4711111,30.8622222 C19.7244444,31.7333333 19.3511111,32.7911111 19.3511111,34.0355556 C19.3511111,34.72 19.5377778,35.4044444 19.8488889,36.0888889 C20.16,36.7733333 20.5955556,37.3955556 21.0933333,37.9555556 C21.5911111,38.5155556 22.1511111,38.9511111 22.7733333,39.2622222 C23.3955556,39.5733333 24.0177778,39.76 24.5777778,39.76 C25.8844444,39.76 27.0044444,39.4488889 28,38.8266667 C28.9955556,38.2044444 29.9288889,37.2711111 30.8,35.9644444 C30.8622222,35.84 30.9866667,35.7155556 31.0488889,35.5911111 L24.3911111,27.7511111 Z M28.0622222,16.9244444 C27.44,16.4266667 26.5066667,16.1155556 25.3866667,16.1155556 C24.3288889,16.1155556 23.4577778,16.3644444 22.7733333,16.8622222 C22.0888889,17.36 21.7777778,18.2311111 21.7777778,19.4133333 C21.7777778,19.9111111 21.84,20.3466667 21.9022222,20.72 C21.9644444,21.0933333 22.1511111,21.4666667 22.3377778,21.84 C22.5244444,22.2133333 22.7733333,22.5866667 23.0844444,22.8977778 C23.3955556,23.2711111 23.7066667,23.6444444 24.08,24.08 L25.0133333,25.1377778 C26.4444444,24.2044444 27.44,23.3955556 28,22.7733333 C28.6844444,22.0266667 29.0577778,20.8444444 29.0577778,19.2888889 C28.9955556,18.2933333 28.6844444,17.4222222 28.0622222,16.9244444 Z" id="Shape" stroke="#FFFFFF" stroke-width="2"></path>
            </g>
        </g>
    </g>
</svg>