<?xml version="1.0" encoding="UTF-8" standalone="no"?>
<svg width="142px" height="21px" viewBox="0 0 142 21" version="1.1" xmlns="http://www.w3.org/2000/svg" xmlns:xlink="http://www.w3.org/1999/xlink">
    <!-- Generator: Sketch 49.2 (51160) - http://www.bohemiancoding.com/sketch -->
    <title>Group 3</title>
    <desc>Created with Sketch.</desc>
    <defs></defs>
    <g id="Page-1" stroke="none" stroke-width="1" fill="none" fill-rule="evenodd">
        <g id="Group-3" transform="translate(0.000000, -5.000000)" fill="#ffffff">
            <text id="text-monitor" font-family="Kefa-Regular, Kefa" font-size="24" font-weight="normal" letter-spacing="-1.70000005">
                <tspan x="66" y="22">monitor</tspan>
                <tspan x="140.5375" y="22"> </tspan>
            </text>
            <text id="text-brick" font-family="Kefa-Regular, Kefa" font-size="24" font-weight="normal" letter-spacing="-1.70000005">
                <tspan x="0" y="22">brick</tspan>
                <tspan x="46.285156" y="22"> </tspan>
            </text>
            <g id="amp" transform="translate(49.000000, 6.000000)" fill-rule="nonzero">
                <path d="M8.5,20 L0,14.9998971 L0,4.9998971 L8.5,0 L17,4.9998971 L17,14.9998971 L8.5,20 Z M0.862664259,14.4926224 L8.5,18.9852448 L16.1375377,14.4926224 L16.1375377,5.50717181 L8.5,1.01475521 L0.862664259,5.50717181 L0.862664259,14.4926224 Z" id="Shape"></path>
                <path d="M13.6664513,11.470939 C13.2018656,11.6281414 12.142263,11.9995845 11.6780811,12.1281685 C11.547246,12.599776 11.3441286,13.0568755 11.0976014,13.4569369 C10.8215959,13.9712732 10.4587708,14.4140635 10.0234615,14.7857053 C9.60268939,15.1714575 9.12356647,15.4715532 8.60103376,15.685595 C8.04962849,15.9000343 7.41099984,16 6.81598288,16 C6.3515991,16 5.81452916,15.9286527 5.46603941,15.8000687 C5.13228881,15.6569766 4.85648522,15.4715532 4.63862865,15.2571139 C4.40643676,15.014255 4.26126635,14.7427776 4.15970764,14.4426819 C4.05814893,14.1284757 4,13.8142695 4,13.485754 C4,13.114311 4.05814893,12.7285588 4.17424487,12.3428066 C4.30487805,11.9427451 4.47892101,11.5713021 4.71131481,11.2284775 C5.23364561,10.4855914 5.87227427,10.0141827 6.75763205,9.78563298 C6.43821677,9.55708324 6.22076401,9.29991508 6.0755936,8.99981933 C5.93022129,8.69992231 5.85773704,8.38551735 5.85773704,8.07131113 C5.85773704,7.68555891 5.93022129,7.34273429 6.08992893,6.97129126 C6.2641738,6.62846664 6.48182846,6.28564202 6.75763205,5.985745 C7.03343563,5.68584798 7.36738814,5.4570995 7.75908577,5.27147735 C8.1509853,5.09996567 8.5719593,5 9.03634308,5 C11.4311501,5 11.7505653,7.62871958 10.9524309,9.19994941 C10.473308,8.90005239 9.79106768,8.47137256 9.48618963,8.22851361 C10.9811016,6.18567634 8.36863996,4.84279752 7.67186238,7.17122261 C7.59937813,7.41408156 7.55596834,7.6569405 7.55596834,7.88549025 C7.55596834,8.09992954 7.5848409,8.29986088 7.64319173,8.49979223 C7.93333064,9.6284305 8.64464545,9.35675441 9.79106768,9.28540714 L9.53000323,10.2711521 C7.52689388,10.3711178 6.20622678,11.2712063 6.20622678,13.2854252 C6.20622678,15.5999386 9.7478598,15.2282968 10.9378937,12.2710618 C10.110483,12.4423747 9.26853497,12.5423404 8.41245356,12.5568484 C8.49947504,12.1424777 8.58649653,11.6569586 8.65898078,11.22808 C10.2556534,11.1424235 12.5779761,10.4281559 14,9.65665143 C13.9127766,10.1423693 13.7678081,10.9995303 13.6664513,11.470939 Z" id="Shape"></path>
            </g>
        </g>
    </g>
</svg>