<svg version="1.1" id="Layer_1" xmlns="http://www.w3.org/2000/svg" xmlns:xlink="http://www.w3.org/1999/xlink" x="0px" y="0px"
	 viewBox="0 0 403 403" style="enable-background:new 0 0 403 403;" xml:space="preserve">
<g>
	<path d="M207,196V0h-11v98.22L98.22,196H0v11h196v196h11V207h196v-11H207z M113.78,196L196,113.78V196H113.78z"/>
	<polygon points="298.16,144.45 310.12,144.45 310.12,69.06 339.03,69.06 339.03,57.96 269.25,57.96 269.25,69.06 298.16,69.06 	"/>
	<polygon points="74.01,345.45 85.96,345.45 85.96,309.1 122.81,309.1 122.81,297.87 85.96,297.87 85.96,270.06 126.59,270.06 
		126.59,258.96 74.01,258.96 	"/>
	<path d="M304.48,258.96h-31.47v86.49h11.96v-35.38h19.52c15.98,0,26.72-10.86,26.72-25.5C331.2,270.06,320.47,258.96,304.48,258.96
		z M302.29,299.34h-17.32v-29.64h17.32c10.37,0,16.71,5.86,16.71,15C319,293.6,312.66,299.34,302.29,299.34z"/>
</g>
</svg>
