<?xml version="1.0" encoding="UTF-8" standalone="no"?>
<svg width="142px" height="18px" viewBox="0 0 142 18" version="1.1" xmlns="http://www.w3.org/2000/svg" xmlns:xlink="http://www.w3.org/1999/xlink">
    <!-- Generator: Sketch 49.2 (51160) - http://www.bohemiancoding.com/sketch -->
    <title>Group 3</title>
    <desc>Created with Sketch.</desc>
    <defs></defs>
    <g id="Page-1" stroke="none" stroke-width="1" fill="none" fill-rule="evenodd">
        <g id="Group-3" transform="translate(0.000000, -5.000000)">
            <text id="text-monitor" font-family="Kefa-Regular, Kefa" font-size="24" font-weight="normal" letter-spacing="-1.70000005" fill="#111111">
                <tspan x="66" y="22">monitor</tspan>
                <tspan x="140.5375" y="22"> </tspan>
            </text>
            <text id="text-brick" font-family="Kefa-Regular, Kefa" font-size="24" font-weight="normal" letter-spacing="-1.70000005" fill="#111111">
                <tspan x="0" y="22">brick</tspan>
                <tspan x="46.285156" y="22"> </tspan>
            </text>
            <g id="amp" transform="translate(49.000000, 6.000000)"></g>
            <g id="amp2" transform="translate(51.000000, 7.000000)" fill="#111111" fill-rule="nonzero">
                <path d="M11.68125,14.16 L7.8375,10.08 C7.59375,9.82 7.29375,9.82 7.05,10.08 L3.975,13.36 C3.7125,13.64 3.43125,13.76 3.1125,13.76 C2.55,13.76 2.11875,13.32 2.11875,12.7 C2.11875,12.4 2.23125,12.1 2.49375,11.78 L4.4625,9.68 C7.35,6.68 8.08125,5.58 8.08125,3.98 C8.08125,1.72 6.6,0.12 4.4625,0.12 C2.3625,0.12 0.8625,1.7 0.8625,3.98 C0.8625,5.26 1.33125,6.24 3.0375,8.16 L1.0875,10.28 C0.4125,11.02 0.15,11.86 0.15,12.74 C0.15,14.56 1.36875,15.88 3.1125,15.88 C3.9375,15.88 4.70625,15.62 5.4,14.92 L7.4625,12.72 L10.275,15.68 C10.51875,15.94 10.81875,15.94 11.0625,15.68 L11.7,15 C11.90625,14.74 11.90625,14.42 11.68125,14.16 Z M2.925,3.96 C2.925,2.98 3.5625,2.3 4.48125,2.3 C5.4,2.3 6.0375,2.98 6.0375,3.96 C6.0375,4.78 5.7375,5.36 4.48125,6.64 C3.24375,5.34 2.925,4.76 2.925,3.96 Z" id="Shape"></path>
                <path d="M7.44375,7.68 L7.44375,8.66 C7.44375,9.04 7.65,9.24 7.9875,9.24 L11.25,9.24 C11.60625,9.24 11.79375,9.02 11.79375,8.66 L11.79375,7.68 C11.79375,7.3 11.5875,7.1 11.25,7.1 L7.9875,7.1 C7.65,7.1 7.44375,7.3 7.44375,7.68 Z" id="Shape"></path>
            </g>
        </g>
    </g>
</svg>